<svg xmlns="http://www.w3.org/2000/svg" viewBox="0 0 26.3 26.3"><defs><style>.cls-1{fill:#010101;fill-rule:evenodd;}.cls-2{fill:none;stroke:#000;stroke-miterlimit:10;stroke-width:1.3px;}</style></defs><g id="Capa_2" data-name="Capa 2"><g id="Capa_1-2" data-name="Capa 1"><path class="cls-1" d="M19.72,16c-.37-.18-2.11-1.05-2.44-1.18s-.58-.18-.82.19a14.79,14.79,0,0,1-1.13,1.38c-.21.25-.42.27-.76.11a9.23,9.23,0,0,1-2.9-1.78,10.68,10.68,0,0,1-2-2.44c-.19-.39,0-.55.15-.76a5.22,5.22,0,0,0,.55-.61.83.83,0,0,0,.12-.16,2.91,2.91,0,0,0,.23-.42.54.54,0,0,0,0-.62c-.07-.18-.79-2-1.1-2.65s-.6-.6-.79-.6h-.7a1.23,1.23,0,0,0-1,.45,3.82,3.82,0,0,0-1.34,3A4.08,4.08,0,0,0,6.05,11a8.31,8.31,0,0,0,1.29,2.51c.18.24,2.48,3.94,6.13,5.36s3.67.94,4.31.89a3.57,3.57,0,0,0,2.43-1.7,2.8,2.8,0,0,0,.19-1.69,1.71,1.71,0,0,0-.68-.39Z"/><circle class="cls-2" cx="13.15" cy="13.15" r="12.5"/></g></g></svg>