<svg xmlns="http://www.w3.org/2000/svg" viewBox="0 0 511.68 402"><defs><style>.cls-1{fill:#ffc702;}</style></defs><g id="Capa_2" data-name="Capa 2"><g id="Capa_1-2" data-name="Capa 1"><g id="Capa_2-2" data-name="Capa 2"><g id="Capa_1-2-2" data-name="Capa 1-2"><path class="cls-1" d="M49.11,123.91q9.7,6.85,58.52,40.68t74.81,52.1q2.85,2,12.13,8.71T210,236.25q6.15,4.14,14.85,9.28a86.21,86.21,0,0,0,16.42,7.7,45.23,45.23,0,0,0,14.28,2.57h.57a45.13,45.13,0,0,0,14.28-2.57,85.56,85.56,0,0,0,16.41-7.7q8.71-5.15,14.85-9.28t15.42-10.85q9.27-6.71,12.13-8.71,26.27-18.27,133.62-92.79a135.32,135.32,0,0,0,34.82-35.11q14-20.55,14-43.11a43.71,43.71,0,0,0-13.57-32.26Q484.51,0,465.94,0H45.68q-22,0-33.83,14.84T0,52Q0,70,15.7,91T49.11,123.91Z"/><path class="cls-1" d="M483.07,154.45Q389.44,217.84,340.89,253q-16.26,12-26.4,18.7t-27,13.7q-16.85,7-31.41,7h-.57q-14.56,0-31.41-7t-27-13.7Q187,265,170.73,253,132.21,224.7,28.84,154.45A151.22,151.22,0,0,1,0,129.62V356.3a44,44,0,0,0,13.42,32.27A44,44,0,0,0,45.68,402H466a45.82,45.82,0,0,0,45.68-45.69V129.62A156.79,156.79,0,0,1,483.07,154.45Z"/></g></g></g></g></svg>