<svg xmlns="http://www.w3.org/2000/svg" xmlns:xlink="http://www.w3.org/1999/xlink" viewBox="0 0 901.54 325.54"><defs><style>.cls-1{isolation:isolate;}.cls-2{fill:url(#Silver_04);}.cls-3{fill:url(#Silver_04-2);}.cls-4{fill:url(#Silver_04-3);}.cls-5{fill:url(#Silver_04-4);}.cls-6{fill:url(#Silver_04-5);}.cls-7{fill:url(#Silver_04-6);}.cls-8{fill:url(#Silver_04-7);}.cls-9{fill:url(#Silver_04-8);}.cls-10{fill:url(#Silver_04-9);}.cls-11{fill:url(#Silver_04-10);}.cls-12{fill:url(#Silver_04-11);}.cls-13{fill:url(#Silver_04-12);}.cls-14{fill:url(#Silver_04-13);}.cls-15{fill:url(#Silver_04-14);}.cls-16{fill:url(#Silver_04-15);}.cls-17{fill:url(#Silver_04-16);}.cls-18{fill:url(#Silver_04-17);}.cls-19{fill:url(#Silver_04-18);}.cls-20{fill:url(#Silver_04-19);}.cls-21{fill:url(#Silver_04-20);}.cls-22{fill:url(#Silver_04-21);}.cls-23{fill:url(#Silver_04-22);}.cls-24{fill:url(#Silver_04-23);}.cls-25{fill:url(#Silver_04-24);}.cls-26{fill:url(#Silver_04-25);}.cls-27{fill:url(#Silver_04-26);}.cls-28{fill:url(#Silver_04-27);}.cls-29{fill:url(#Silver_04-28);}.cls-30{fill:url(#Silver_04-29);}.cls-31{fill:url(#Silver_04-30);}.cls-32{fill:url(#Silver_04-31);}.cls-33{fill:url(#Silver_04-32);}.cls-34{fill:url(#Silver_04-33);}.cls-35{fill:url(#Silver_04-34);}.cls-36{fill:url(#Silver_04-35);}.cls-37{fill:url(#Silver_04-36);}.cls-38{fill:url(#Silver_04-37);}.cls-39{fill:url(#Silver_04-38);}.cls-40{fill:url(#Silver_04-39);}.cls-41{fill:url(#Silver_04-40);}.cls-42{fill:url(#Silver_04-41);}.cls-43{fill:url(#Silver_04-42);}.cls-44{fill:#ffce00;}.cls-45{mix-blend-mode:multiply;fill:url(#linear-gradient);}.cls-46{fill:url(#Silver_04-43);}</style><linearGradient id="Silver_04" x1="8.7" y1="265.47" x2="8.7" y2="368.85" gradientUnits="userSpaceOnUse"><stop offset="0" stop-color="#d6d9de"/><stop offset="0.09" stop-color="#d2d6da"/><stop offset="0.17" stop-color="#c7cbcf"/><stop offset="0.24" stop-color="#b5b9bd"/><stop offset="0.25" stop-color="#b4b8bc"/><stop offset="0.29" stop-color="#cfd3d7"/><stop offset="0.33" stop-color="#e6eaed"/><stop offset="0.37" stop-color="#f4f7fa"/><stop offset="0.4" stop-color="#f9fcff"/><stop offset="0.63" stop-color="#f9fcff"/><stop offset="0.75" stop-color="#9fa2a5"/><stop offset="0.83" stop-color="#bbbec3"/><stop offset="0.85" stop-color="#9d9fa3"/><stop offset="0.87" stop-color="#85878b"/><stop offset="0.89" stop-color="#77797c"/><stop offset="0.91" stop-color="#727477"/><stop offset="0.92" stop-color="#797b7e"/><stop offset="0.95" stop-color="#8c8e92"/><stop offset="0.97" stop-color="#abaeb2"/><stop offset="1" stop-color="#d6d9de"/></linearGradient><linearGradient id="Silver_04-2" x1="31.43" y1="265.47" x2="31.43" y2="368.85" xlink:href="#Silver_04"/><linearGradient id="Silver_04-3" x1="52.95" y1="265.47" x2="52.95" y2="368.85" xlink:href="#Silver_04"/><linearGradient id="Silver_04-4" x1="78.5" y1="265.47" x2="78.5" y2="368.85" xlink:href="#Silver_04"/><linearGradient id="Silver_04-5" x1="98.29" y1="265.47" x2="98.29" y2="368.85" xlink:href="#Silver_04"/><linearGradient id="Silver_04-6" x1="116.39" y1="265.47" x2="116.39" y2="368.85" xlink:href="#Silver_04"/><linearGradient id="Silver_04-7" x1="133.02" y1="265.47" x2="133.02" y2="368.85" xlink:href="#Silver_04"/><linearGradient id="Silver_04-8" x1="152.42" y1="265.47" x2="152.42" y2="368.85" xlink:href="#Silver_04"/><linearGradient id="Silver_04-9" x1="177" y1="265.47" x2="177" y2="368.85" xlink:href="#Silver_04"/><linearGradient id="Silver_04-10" x1="202.18" y1="265.47" x2="202.18" y2="368.85" xlink:href="#Silver_04"/><linearGradient id="Silver_04-11" x1="220.99" y1="265.47" x2="220.99" y2="368.85" xlink:href="#Silver_04"/><linearGradient id="Silver_04-12" x1="241.27" y1="265.47" x2="241.27" y2="368.85" xlink:href="#Silver_04"/><linearGradient id="Silver_04-13" x1="267.42" y1="265.47" x2="267.42" y2="368.85" xlink:href="#Silver_04"/><linearGradient id="Silver_04-14" x1="303.77" y1="265.47" x2="303.77" y2="368.85" xlink:href="#Silver_04"/><linearGradient id="Silver_04-15" x1="333.02" y1="265.47" x2="333.02" y2="368.85" xlink:href="#Silver_04"/><linearGradient id="Silver_04-16" x1="352.8" y1="265.47" x2="352.8" y2="368.85" xlink:href="#Silver_04"/><linearGradient id="Silver_04-17" x1="376.76" y1="265.47" x2="376.76" y2="368.85" xlink:href="#Silver_04"/><linearGradient id="Silver_04-18" x1="399.64" y1="265.47" x2="399.64" y2="368.85" xlink:href="#Silver_04"/><linearGradient id="Silver_04-19" x1="424.41" y1="265.47" x2="424.41" y2="368.85" xlink:href="#Silver_04"/><linearGradient id="Silver_04-20" x1="448.29" y1="265.47" x2="448.29" y2="368.85" xlink:href="#Silver_04"/><linearGradient id="Silver_04-21" x1="470.28" y1="265.47" x2="470.28" y2="368.85" xlink:href="#Silver_04"/><linearGradient id="Silver_04-22" x1="492.68" y1="265.47" x2="492.68" y2="368.85" xlink:href="#Silver_04"/><linearGradient id="Silver_04-23" x1="516.21" y1="265.47" x2="516.21" y2="368.85" xlink:href="#Silver_04"/><linearGradient id="Silver_04-24" x1="540.97" y1="265.47" x2="540.97" y2="368.85" xlink:href="#Silver_04"/><linearGradient id="Silver_04-25" x1="566.74" y1="265.47" x2="566.74" y2="368.85" xlink:href="#Silver_04"/><linearGradient id="Silver_04-26" x1="588.91" y1="265.47" x2="588.91" y2="368.85" xlink:href="#Silver_04"/><linearGradient id="Silver_04-27" x1="612.55" y1="265.47" x2="612.55" y2="368.85" xlink:href="#Silver_04"/><linearGradient id="Silver_04-28" x1="639.08" y1="265.47" x2="639.08" y2="368.85" xlink:href="#Silver_04"/><linearGradient id="Silver_04-29" x1="663.85" y1="265.47" x2="663.85" y2="368.85" xlink:href="#Silver_04"/><linearGradient id="Silver_04-30" x1="699.29" y1="265.47" x2="699.29" y2="368.85" xlink:href="#Silver_04"/><linearGradient id="Silver_04-31" x1="720.75" y1="265.47" x2="720.75" y2="368.85" xlink:href="#Silver_04"/><linearGradient id="Silver_04-32" x1="743.86" y1="265.47" x2="743.86" y2="368.85" xlink:href="#Silver_04"/><linearGradient id="Silver_04-33" x1="769.1" y1="265.47" x2="769.1" y2="368.85" xlink:href="#Silver_04"/><linearGradient id="Silver_04-34" x1="792.27" y1="265.47" x2="792.27" y2="368.85" xlink:href="#Silver_04"/><linearGradient id="Silver_04-35" x1="814.26" y1="265.47" x2="814.26" y2="368.85" xlink:href="#Silver_04"/><linearGradient id="Silver_04-36" x1="836.66" y1="265.47" x2="836.66" y2="368.85" xlink:href="#Silver_04"/><linearGradient id="Silver_04-37" x1="860.19" y1="265.47" x2="860.19" y2="368.85" xlink:href="#Silver_04"/><linearGradient id="Silver_04-38" x1="883.36" y1="265.47" x2="883.36" y2="368.85" xlink:href="#Silver_04"/><linearGradient id="Silver_04-39" x1="287.03" y1="-11.33" x2="287.03" y2="225.23" xlink:href="#Silver_04"/><linearGradient id="Silver_04-40" x1="422.09" y1="-11.33" x2="422.09" y2="225.23" xlink:href="#Silver_04"/><linearGradient id="Silver_04-41" x1="586.32" y1="-11.33" x2="586.32" y2="225.23" xlink:href="#Silver_04"/><linearGradient id="Silver_04-42" x1="804.21" y1="-11.33" x2="804.21" y2="225.23" xlink:href="#Silver_04"/><linearGradient id="linear-gradient" x1="81.06" y1="113.97" x2="133.72" y2="171.97" gradientUnits="userSpaceOnUse"><stop offset="0.13" stop-color="#ffce00"/><stop offset="0.23" stop-color="#ffce00" stop-opacity="0.84"/><stop offset="0.46" stop-color="#ffce00" stop-opacity="0.49"/><stop offset="0.64" stop-color="#ffce00" stop-opacity="0.22"/><stop offset="0.78" stop-color="#ffce00" stop-opacity="0.06"/><stop offset="0.84" stop-color="#ffce00" stop-opacity="0"/></linearGradient><linearGradient id="Silver_04-43" x1="224.15" y1="316.86" x2="4.48" y2="146" xlink:href="#Silver_04"/></defs><g class="cls-1"><g id="Capa_2" data-name="Capa 2"><g id="Layer_1" data-name="Layer 1"><path class="cls-2" d="M.12,283.2H10.44c4.55,0,6.84,2.43,6.84,7.26V303c0,4.81-2.26,7.2-6.78,7.2H5.78v15.33H.12Zm5.66,21.88h3.6c1.49,0,2.24-.82,2.24-2.48V290.81a2.22,2.22,0,0,0-2.54-2.48H5.78Z"/><path class="cls-3" d="M38.15,325.54H24.7V283.2h5.67v37.21h7.78Z"/><path class="cls-4" d="M49.7,325.54H44V290.46c0-4.83,2.27-7.26,6.79-7.26h4.24c4.52,0,6.78,2.43,6.78,7.26v35.08H56.19V310H49.7Zm6.49-20.64V290.81a2.19,2.19,0,0,0-2.47-2.48H52.19a2.2,2.2,0,0,0-2.49,2.48V304.9Z"/><path class="cls-5" d="M81.55,303.67V283.2H87.2v42.34H81.55v-8.43l-6.08-19.29v27.72H69.8V283.2h5.67Z"/><path class="cls-6" d="M95.46,325.54V283.2h5.66v42.34Z"/><path class="cls-7" d="M122.46,301.18v5.14H115v19.22h-5.65V283.2h14v5.13H115v12.85Z"/><path class="cls-8" d="M130.19,325.54V283.2h5.66v42.34Z"/><path class="cls-9" d="M161,315.64v2.71q0,7.2-6.78,7.19h-3.66q-6.78,0-6.78-7.19v-28c0-4.78,2.26-7.19,6.78-7.19h3.66c4.52,0,6.78,2.41,6.78,7.19v4.78h-5.67v-4.36a2.21,2.21,0,0,0-2.53-2.48h-1.12c-1.49,0-2.24.83-2.24,2.48v27.12c0,1.66.75,2.48,2.24,2.48h1.41c1.5,0,2.24-.82,2.24-2.48v-2.29Z"/><path class="cls-10" d="M173.76,325.54H168.1V290.46c0-4.83,2.26-7.26,6.78-7.26h4.25c4.52,0,6.78,2.43,6.78,7.26v35.08h-5.66V310h-6.49Zm6.49-20.64V290.81a2.19,2.19,0,0,0-2.48-2.48h-1.53a2.19,2.19,0,0,0-2.48,2.48V304.9Z"/><path class="cls-11" d="M210.79,315.64v2.71q0,7.2-6.78,7.19h-3.66q-6.78,0-6.78-7.19v-28c0-4.78,2.26-7.19,6.78-7.19H204c4.52,0,6.78,2.41,6.78,7.19v4.78h-5.66v-4.36a2.22,2.22,0,0,0-2.54-2.48h-1.12c-1.49,0-2.24.83-2.24,2.48v27.12c0,1.66.75,2.48,2.24,2.48h1.41c1.5,0,2.25-.82,2.25-2.48v-2.29Z"/><path class="cls-12" d="M218.16,325.54V283.2h5.66v42.34Z"/><path class="cls-13" d="M238.62,325.54c-4.57,0-6.84-2.39-6.84-7.19V290.46c0-4.83,2.26-7.26,6.77-7.26H244c4.52,0,6.79,2.43,6.79,7.26v27.89q0,7.2-6.85,7.19Zm1.36-5.13h2.88c1.49,0,2.25-.82,2.25-2.48V290.81a2.23,2.23,0,0,0-2.54-2.48h-2.65a2.19,2.19,0,0,0-2.48,2.48v27.12A2.21,2.21,0,0,0,240,320.41Zm1.89-40h-4l2.72-7h5.2Z"/><path class="cls-14" d="M270.45,303.67V283.2h5.66v42.34h-5.66v-8.43l-6.06-19.29v27.72h-5.67V283.2h5.67Z"/><path class="cls-15" d="M296.76,325.54V283.2h14v5.13h-8.38v12.85h7.43v5.14h-7.43v14.09h8.38v5.13Z"/><path class="cls-16" d="M330.19,325.54V283.2h5.66v42.34Z"/><path class="cls-17" d="M355.84,303.67V283.2h5.65v42.34h-5.65v-8.43l-6.08-19.29v27.72H344.1V283.2h5.66Z"/><path class="cls-18" d="M382.84,301.18v5.14h-7.42v19.22h-5.67V283.2h14v5.13h-8.36v12.85Z"/><path class="cls-19" d="M390.56,283.2h11.08c4.33,0,6.5,2.43,6.5,7.26V300.9q0,5.53-3.37,7l4,17.63h-5.36l-3.72-17.1h-3.42v17.1h-5.66Zm5.66,20.41h3.72c1.69,0,2.53-1,2.53-3.07V291.4c0-2-.84-3.07-2.53-3.07h-3.72Z"/><path class="cls-20" d="M421.16,325.54H415.5V290.46c0-4.83,2.26-7.26,6.79-7.26h4.25c4.51,0,6.77,2.43,6.77,7.26v35.08h-5.66V310h-6.49Zm6.49-20.64V290.81a2.19,2.19,0,0,0-2.48-2.48h-1.53a2.19,2.19,0,0,0-2.48,2.48V304.9Z"/><path class="cls-21" d="M441.27,325.54V283.2h14v5.13h-8.37v12.85h7.42v5.14h-7.42v14.09h8.37v5.13Z"/><path class="cls-22" d="M473.17,294.58v-3.71a2.22,2.22,0,0,0-2.48-2.54h-.88c-1.62,0-2.42.85-2.42,2.54v7a2.07,2.07,0,0,0,.47,1.59,11,11,0,0,0,1.54,1.06l5.36,2.89a25.22,25.22,0,0,1,2.5,1.56,4.07,4.07,0,0,1,1.16,1.36,7.6,7.6,0,0,1,.4,3v9q0,7.14-6.83,7.13h-3.48q-6.78,0-6.78-7.78v-2.12h5.66v2.29a2.22,2.22,0,0,0,2.54,2.48h1c1.5,0,2.25-.82,2.25-2.48v-7.19a2.11,2.11,0,0,0-.47-1.59,11,11,0,0,0-1.54-1.06l-5.36-3a16.47,16.47,0,0,1-2.57-1.59,3.76,3.76,0,0,1-1.15-1.68,8.69,8.69,0,0,1-.35-2.69v-8.66c0-4.83,2.26-7.26,6.78-7.26H472c4.53,0,6.78,2.43,6.78,7.26v4.12Z"/><path class="cls-23" d="M495.51,288.33v37.21h-5.66V288.33h-5.42V283.2h16.51v5.13Z"/><path class="cls-24" d="M507.13,283.2h11.08c4.33,0,6.49,2.43,6.49,7.26V300.9q0,5.53-3.37,7l4,17.63h-5.37l-3.71-17.1h-3.42v17.1h-5.66Zm5.66,20.41h3.71c1.69,0,2.54-1,2.54-3.07V291.4c0-2-.85-3.07-2.54-3.07h-3.71Z"/><path class="cls-25" d="M550.17,283.2v34.32q0,8-6.84,8h-4.77q-6.78,0-6.78-8.08V283.2h5.66v34.44c0,1.85.82,2.77,2.47,2.77h2.3c1.53,0,2.3-.92,2.3-2.77V283.2Z"/><path class="cls-26" d="M575.35,315.64v2.71q0,7.2-6.78,7.19h-3.66q-6.78,0-6.78-7.19v-28c0-4.78,2.26-7.19,6.78-7.19h3.66c4.52,0,6.78,2.41,6.78,7.19v4.78h-5.66v-4.36a2.22,2.22,0,0,0-2.54-2.48H566c-1.49,0-2.24.83-2.24,2.48v27.12c0,1.66.75,2.48,2.24,2.48h1.42c1.49,0,2.24-.82,2.24-2.48v-2.29Z"/><path class="cls-27" d="M591.74,288.33v37.21h-5.66V288.33h-5.43V283.2h16.52v5.13Z"/><path class="cls-28" d="M621.75,283.2v34.32q0,8-6.84,8h-4.77q-6.78,0-6.78-8.08V283.2H609v34.44c0,1.85.83,2.77,2.47,2.77h2.3c1.53,0,2.3-.92,2.3-2.77V283.2Z"/><path class="cls-29" d="M630,283.2h11.08c4.32,0,6.49,2.43,6.49,7.26V300.9q0,5.53-3.37,7l3.95,17.63H642.8l-3.72-17.1h-3.41v17.1H630Zm5.66,20.41h3.71c1.7,0,2.54-1,2.54-3.07V291.4c0-2-.84-3.07-2.54-3.07h-3.71Z"/><path class="cls-30" d="M660.6,325.54H655V290.46c0-4.83,2.26-7.26,6.78-7.26H666c4.52,0,6.78,2.43,6.78,7.26v35.08h-5.66V310H660.6Zm6.49-20.64V290.81a2.19,2.19,0,0,0-2.47-2.48h-1.54a2.19,2.19,0,0,0-2.48,2.48V304.9Z"/><path class="cls-31" d="M702.12,288.33v37.21h-5.67V288.33H691V283.2h16.51v5.13Z"/><path class="cls-32" d="M713.73,325.54V283.2h14v5.13h-8.38v12.85h7.43v5.14h-7.43v14.09h8.38v5.13Z"/><path class="cls-33" d="M734.78,283.2h11.09c4.32,0,6.48,2.43,6.48,7.26V300.9q0,5.53-3.36,7l4,17.63h-5.36l-3.72-17.1h-3.42v17.1h-5.66Zm5.66,20.41h3.71c1.7,0,2.54-1,2.54-3.07V291.4c0-2-.84-3.07-2.54-3.07h-3.71Z"/><path class="cls-34" d="M760,283.2h11.09c4.31,0,6.48,2.43,6.48,7.26V300.9c0,3.69-1.13,6-3.36,7l3.95,17.63h-5.37l-3.72-17.1h-3.41v17.1H760Zm5.66,20.41h3.71c1.69,0,2.54-1,2.54-3.07V291.4c0-2-.85-3.07-2.54-3.07h-3.71Z"/><path class="cls-35" d="M785.25,325.54V283.2h14v5.13h-8.38v12.85h7.43v5.14h-7.43v14.09h8.38v5.13Z"/><path class="cls-36" d="M817.15,294.58v-3.71a2.22,2.22,0,0,0-2.47-2.54h-.89c-1.61,0-2.42.85-2.42,2.54v7a2.11,2.11,0,0,0,.47,1.59,11.64,11.64,0,0,0,1.54,1.06l5.37,2.89a26.5,26.5,0,0,1,2.5,1.56,4.16,4.16,0,0,1,1.15,1.36,7.55,7.55,0,0,1,.41,3v9q0,7.14-6.84,7.13h-3.48q-6.78,0-6.78-7.78v-2.12h5.66v2.29a2.21,2.21,0,0,0,2.54,2.48h1c1.49,0,2.24-.82,2.24-2.48v-7.19a2.11,2.11,0,0,0-.47-1.59,11.4,11.4,0,0,0-1.53-1.06l-5.37-3a16.47,16.47,0,0,1-2.57-1.59,3.76,3.76,0,0,1-1.15-1.68,8.69,8.69,0,0,1-.35-2.69v-8.66c0-4.83,2.26-7.26,6.78-7.26H816c4.51,0,6.77,2.43,6.77,7.26v4.12Z"/><path class="cls-37" d="M839.5,288.33v37.21h-5.66V288.33h-5.43V283.2h16.51v5.13Z"/><path class="cls-38" d="M851.11,283.2H862.2c4.32,0,6.49,2.43,6.49,7.26V300.9q0,5.53-3.37,7l3.95,17.63H863.9l-3.71-17.1h-3.42v17.1h-5.66Zm5.66,20.41h3.71c1.69,0,2.54-1,2.54-3.07V291.4c0-2-.85-3.07-2.54-3.07h-3.71Z"/><path class="cls-39" d="M876.35,325.54V283.2h14v5.13H882v12.85h7.43v5.14H882v14.09h8.37v5.13Z"/><path class="cls-40" d="M202.82.65h70V150.22h98.41v59.83H202.82Z"/><path class="cls-41" d="M387.09.65h70v209.4h-70Z"/><path class="cls-42" d="M481.62.65h65.51l74.49,92.44V.65H691v209.4H628.8L551,113.43v60.64h-69.4Z"/><path class="cls-43" d="M768.49,59.88H706.88V.65H901.54V59.88h-63V210.05h-70Z"/><polygon class="cls-44" points="468.17 97.49 468.17 0.23 565.42 0.23 468.17 97.49"/><path class="cls-44" d="M181,42.54A64.29,64.29,0,0,0,161.84,19.2,85,85,0,0,0,132.38,5.29,146.62,146.62,0,0,0,94.23.65H0V56.59H89.15q14.05,0,21.83,5.84t7.78,17.19v.61q0,11.37-8.22,17.2t-21.69,5.83H0V210.05H70V153.22H92.74a142.85,142.85,0,0,0,38.73-4.93,85.94,85.94,0,0,0,30.07-14.82A67.14,67.14,0,0,0,181,109.09q6.89-14.52,6.88-33.35v-.6Q187.86,56.6,181,42.54Z"/><path class="cls-45" d="M110.54,97.43a31.9,31.9,0,0,1-13.74,5.23L0,199.46v10.59H70V153.22H92.74a142.85,142.85,0,0,0,38.73-4.93,85.94,85.94,0,0,0,30.07-14.82A67.14,67.14,0,0,0,181,109.09q6.89-14.52,6.88-33.35v-.6q0-18.54-6.88-32.6a65.59,65.59,0,0,0-9.6-14.45L118.74,80.72Q118.56,91.72,110.54,97.43Z"/><polygon class="cls-46" points="70.02 129.44 0 199.46 0 210.05 70 210.05 70 153.22 70.02 153.22 70.02 129.44"/><polygon class="cls-44" points="468.17 97.26 468.17 0 565.43 0 468.17 97.26"/></g></g></g></svg>